<?xml version="1.0" encoding="UTF-8"?>
<svg version="1.1" xmlns="http://www.w3.org/2000/svg" width="1477" height="296">
<path d="M0 0 C4.05840986 -0.42625311 7.22701063 -0.4212993 10.64794922 2.05957031 C14.4199978 5.42772646 17.75907487 9.17297751 21.13232422 12.93212891 C23.51733587 15.4456305 26.12400486 17.64432217 28.75512695 19.89428711 C33.68453934 24.25901775 38.20795514 29.06745156 42.82421875 33.7578125 C47.0452391 38.01988005 51.33030891 42.09174184 55.88085938 45.99804688 C60.5340435 50.13571789 64.81610862 54.67523857 69.1796875 59.11328125 C72.64160919 62.61089286 76.10767402 66.03299346 79.84375 69.23828125 C84.70131327 73.41222313 89.14987941 77.9739123 93.640625 82.53515625 C95.2997018 84.21979663 96.96107288 85.90218138 98.625 87.58203125 C99.34913086 88.31776367 100.07326172 89.05349609 100.81933594 89.81152344 C102.75172242 91.65280259 104.74431904 93.20555854 106.890625 94.78515625 C106.89942436 93.1005278 106.89942436 93.1005278 106.90840149 91.38186646 C106.9655264 80.81615518 107.03823389 70.25065176 107.12633991 59.68515205 C107.17113541 54.25284421 107.21037107 48.82061296 107.23706055 43.38818359 C107.26300221 38.14906144 107.30333909 32.91023263 107.35381126 27.67129135 C107.37054205 25.66898105 107.38201747 23.66661995 107.38823891 21.66424942 C107.39781276 18.86715938 107.42579023 16.0708304 107.45825195 13.27392578 C107.45609932 12.02236191 107.45609932 12.02236191 107.4539032 10.74551392 C107.49189758 8.44241333 107.49189758 8.44241333 107.890625 4.78515625 C111.54120203 2.35143823 114.29301918 2.47902102 118.515625 2.484375 C119.25893066 2.48008987 120.00223633 2.47580475 120.76806641 2.47138977 C122.33820579 2.46565174 123.90837175 2.46514234 125.47851562 2.46948242 C127.88197049 2.47264486 130.2841971 2.44917008 132.6875 2.42382812 C134.21354011 2.42155532 135.73958354 2.42085155 137.265625 2.421875 C137.98443848 2.41266525 138.70325195 2.40345551 139.44384766 2.39396667 C144.35464304 2.43956671 144.35464304 2.43956671 146.5797739 3.87428284 C148.5744476 6.78198832 148.27164499 9.23277836 148.27830505 12.73144531 C148.28638336 13.79792234 148.28638336 13.79792234 148.29462487 14.88594437 C148.3089616 17.27439809 148.30178696 19.66230206 148.29467773 22.05078125 C148.30037829 23.76062467 148.30734133 25.47046428 148.31547546 27.18029785 C148.33345571 31.82898834 148.33222952 36.47749059 148.32653308 41.12620544 C148.32344859 45.00319919 148.32952534 48.88015638 148.33557183 52.75714493 C148.3496311 61.90062738 148.3480438 71.04401643 148.33666992 80.1875 C148.32518377 89.6300929 148.33926953 99.07240194 148.3660664 108.51495743 C148.38819363 116.61438121 148.39486762 124.7137157 148.38898998 132.81316757 C148.38561248 137.65403793 148.38808805 142.49472625 148.40524101 147.33557129 C148.42066104 151.8861479 148.41680997 156.43630255 148.39793587 160.98686218 C148.39423638 162.65943824 148.39739782 164.33204523 148.40782166 166.0045929 C148.42094121 168.28317693 148.40956675 170.56034525 148.39183044 172.83886719 C148.39162116 174.11534119 148.39141188 175.39181519 148.39119625 176.70697021 C147.890625 179.78515625 147.890625 179.78515625 146.03898716 181.69195557 C143.04851093 183.21366858 141.21389429 183.25041395 137.890625 182.78515625 C133.6499821 180.24704013 130.21630022 177.35819828 126.73828125 173.86328125 C126.27505966 173.39960144 125.81183807 172.93592163 125.33457947 172.45819092 C124.36170009 171.48231145 123.39123071 170.50402388 122.4230957 169.5234375 C120.96545452 168.04763935 119.50007093 166.57990297 118.03320312 165.11328125 C114.23608858 161.29655834 110.47672988 157.48882129 106.99169922 153.38183594 C101.02061449 146.51224052 94.4327538 140.20513764 87.98828125 133.78515625 C86.54075066 132.33949353 85.09344276 130.89360779 83.64634705 129.44750977 C79.85926023 125.66421906 76.06917868 121.88394264 72.27844238 118.10430908 C68.40189616 114.2380398 64.52822176 110.3688955 60.65429688 106.5 C53.069197 98.92558613 45.48092681 91.35435701 37.890625 83.78515625 C37.88475876 84.9436055 37.87889252 86.10205475 37.87284851 87.29560852 C37.81569814 98.19947503 37.74297701 109.10314062 37.65491009 120.00680256 C37.61013433 125.61283755 37.57089415 131.21879866 37.54418945 136.82495117 C37.51822832 142.23265277 37.47787714 147.64007111 37.42743874 153.04759789 C37.41072126 155.11327791 37.39923749 157.17900697 37.39301109 159.24474525 C37.38342299 162.13262431 37.35542755 165.01977065 37.32299805 167.9074707 C37.32443314 168.76630356 37.32586823 169.62513641 37.3273468 170.50999451 C37.23453968 176.33269068 37.23453968 176.33269068 35.58482075 178.50311565 C32.75442316 180.6449488 29.45833954 180.23227099 26.046875 180.21875 C25.28137329 180.22399185 24.51587158 180.2292337 23.72717285 180.2346344 C22.10995699 180.24105307 20.49269444 180.23971955 18.87548828 180.23120117 C16.39922153 180.22268581 13.92525781 180.25145903 11.44921875 180.28320312 C9.87760486 180.28481511 8.30598688 180.28423766 6.734375 180.28125 C5.99368774 180.29248398 5.25300049 180.30371796 4.48986816 180.31529236 C-0.61935095 180.24591167 -0.61935095 180.24591167 -2.80510235 178.19071293 C-4.571157 174.93346104 -4.48408925 172.49591777 -4.4835968 168.79454041 C-4.48757121 168.0908684 -4.49154561 167.38719639 -4.49564046 166.66220099 C-4.50526455 164.30446162 -4.49344514 161.94732214 -4.48168945 159.58959961 C-4.48411737 157.89931514 -4.48783668 156.20903211 -4.49275208 154.51875305 C-4.50216407 149.92794923 -4.49273344 145.33735849 -4.47941995 140.7465713 C-4.46811269 135.94600179 -4.47221235 131.14544289 -4.47416687 126.34486389 C-4.47504999 118.28382887 -4.46396498 110.22287793 -4.44555664 102.16186523 C-4.42438158 92.83577154 -4.42088056 83.50980097 -4.4271186 74.1836881 C-4.43280844 65.21888852 -4.42717154 56.25413239 -4.41594505 47.28933907 C-4.41129476 43.47081259 -4.41042706 39.65231265 -4.4125309 35.8337841 C-4.41441122 31.33992261 -4.40632967 26.84618687 -4.3904705 22.35235405 C-4.3862195 20.70074483 -4.38538256 19.04912288 -4.38816071 17.39751053 C-4.39137145 15.14779742 -4.38232905 12.89846265 -4.37007141 10.64878845 C-4.36801854 9.38836196 -4.36596567 8.12793547 -4.36385059 6.82931423 C-4.06643639 3.27150421 -3.50816252 1.30581605 0 0 Z " fill="#DADADA" transform="translate(157.109375,19.21484375)"/>
<path d="M0 0 C1.10927856 -0.00574036 1.10927856 -0.00574036 2.2409668 -0.01159668 C3.8009579 -0.01431271 5.36099478 -0.00697292 6.92089844 0.00976562 C9.30507186 0.03118327 11.68623249 0.00995737 14.0703125 -0.015625 C15.5885483 -0.01298166 17.10678223 -0.00785656 18.625 0 C19.33551514 -0.00809692 20.04603027 -0.01619385 20.77807617 -0.02453613 C23.80148733 0.03257477 25.9245217 0.28620282 28.50183105 1.91403198 C31.34436979 6.02275854 30.85024096 10.04249946 30.79492188 14.92431641 C30.79883438 15.98173035 30.80274689 17.03914429 30.80677795 18.12860107 C30.81275757 20.42575102 30.80957469 22.72293879 30.7983551 25.02006912 C30.78111591 28.66113438 30.78859096 32.30140392 30.8026123 35.94247437 C30.83229025 44.99033771 30.81909808 54.03805044 30.80743408 63.0859375 C30.79921525 70.7234939 30.80724256 78.36070363 30.83656311 85.99821091 C30.84363683 89.57557728 30.82699978 93.15232703 30.80944824 96.72964478 C30.81515977 98.94037197 30.82197884 101.15109667 30.83007812 103.36181641 C30.81876358 104.34816071 30.80744904 105.334505 30.79579163 106.35073853 C30.87936967 115.94498041 33.7921673 123.81720973 40.375 130.83984375 C47.25254592 136.84383041 54.79626156 137.88567973 63.66015625 137.8125 C70.353501 137.29707666 76.89083926 134.86817244 81.93359375 130.28515625 C86.94745467 123.90775242 90.42441585 116.06719107 90.45053101 107.93235779 C90.45598434 107.01405182 90.46143768 106.09574585 90.46705627 105.14961243 C90.4680986 104.14947617 90.46914093 103.1493399 90.47021484 102.11889648 C90.47529556 101.05999207 90.48037628 100.00108765 90.48561096 98.91009521 C90.49630915 96.61129521 90.50493149 94.31248482 90.51173019 92.01366997 C90.52351338 88.37893587 90.54296285 84.74432089 90.56484985 81.1096344 C90.62650028 70.77568496 90.68059987 60.44174893 90.71386719 50.10766602 C90.73476142 43.7876515 90.77001753 37.46785607 90.81462479 31.14796638 C90.8288217 28.73618198 90.8375155 26.32435883 90.84067917 23.91253471 C90.84556413 20.54619117 90.86865826 17.1804342 90.89599609 13.81420898 C90.89148689 12.31096825 90.89148689 12.31096825 90.8868866 10.77735901 C90.90352608 9.40412979 90.90352608 9.40412979 90.92050171 8.00315857 C90.92381186 7.20731574 90.927122 6.41147291 90.93053246 5.59151363 C91.41508317 2.97793498 92.1848313 2.09286716 94.3125 0.53125 C97.00636487 0.24516755 99.46410101 0.13449442 102.15625 0.16796875 C102.92175171 0.16747025 103.68725342 0.16697174 104.47595215 0.16645813 C106.09320677 0.16879693 107.71046514 0.17851413 109.32763672 0.19506836 C111.80339092 0.21866319 114.27806817 0.21562795 116.75390625 0.20898438 C118.32552725 0.21456126 119.89714372 0.22167121 121.46875 0.23046875 C122.20943726 0.22955734 122.95012451 0.22864594 123.71325684 0.22770691 C127.44985806 0.27926521 129.12421136 0.40572424 132.3125 2.53125 C132.69281673 4.59670639 132.69281673 4.59670639 132.70018005 7.19525146 C132.71008469 8.17905289 132.71998932 9.16285431 132.73019409 10.1764679 C132.72569244 11.2600206 132.7211908 12.3435733 132.71655273 13.45996094 C132.72341599 14.59843979 132.73027924 15.73691864 132.73735046 16.90989685 C132.75573306 20.69526461 132.75176092 24.48022191 132.74609375 28.265625 C132.75065359 30.89723852 132.75595856 33.52885084 132.76197815 36.16046143 C132.77202677 41.69213795 132.76869505 47.22369778 132.75854492 52.75537109 C132.74712602 59.11844754 132.76102717 65.48109944 132.7879414 71.84411979 C132.81293661 77.98652504 132.81524558 84.1287374 132.80882454 90.27118683 C132.80867188 92.87208 132.8146703 95.47298151 132.82711601 98.07384491 C132.93471708 124.27455306 132.93471708 124.27455306 128.3125 135.53125 C128.03226486 136.22255005 127.75202972 136.9138501 127.46330261 137.62609863 C119.41648235 155.56687591 105.04092857 168.13252396 87.2734375 175.8515625 C68.43503268 182.70650765 48.52497288 181.81385216 30.125 174.21484375 C23.0456062 170.90089282 17.13434851 166.72264453 11.3125 161.53125 C10.60222656 160.90347656 9.89195312 160.27570313 9.16015625 159.62890625 C-4.58028212 146.73241035 -11.25507548 128.49857228 -11.97433472 109.9335022 C-12.13657958 103.2646236 -12.13199239 96.59623264 -12.12109375 89.92578125 C-12.12566182 87.46815345 -12.13096925 85.01052692 -12.13697815 82.55290222 C-12.14586244 77.433571 -12.14353458 72.31439624 -12.13354492 67.19506836 C-12.12198234 60.62997877 -12.14240178 54.06542126 -12.17146206 47.5004015 C-12.18977112 42.43986079 -12.18954351 37.37944939 -12.18382454 32.3188839 C-12.1836711 29.89672784 -12.18973429 27.47456315 -12.20211601 25.05243874 C-12.21694649 21.68020159 -12.20641166 18.30897251 -12.18920898 14.93676758 C-12.19887695 13.93678238 -12.20854492 12.93679718 -12.21850586 11.9065094 C-12.14658771 5.19459062 -12.14658771 5.19459062 -9.87562561 1.91325378 C-6.68720001 -0.100532 -3.65509912 -0.04165296 0 0 Z " fill="#DADADA" transform="translate(995.6875,21.46875)"/>
<path d="M0 0 C1.50367126 -0.01475121 1.50367126 -0.01475121 3.03771973 -0.02980042 C4.13136337 -0.02013245 5.22500702 -0.01046448 6.35179138 -0.00050354 C7.50823151 -0.00590652 8.66467163 -0.01130951 9.8561554 -0.01687622 C13.68365466 -0.02939687 17.51040673 -0.01285024 21.33787537 0.00511169 C23.99299139 0.0049568 26.64808042 0.00352338 29.30319214 0.0007019 C34.86912285 -0.00199932 40.43483779 0.0114689 46.00071716 0.03465271 C52.43671085 0.06127518 58.87234409 0.0630052 65.30837399 0.05126435 C71.49994048 0.04048843 77.69137653 0.04667125 83.88293266 0.06081963 C86.5180263 0.06534504 89.15313055 0.06566147 91.78822517 0.06175423 C95.46588735 0.05885373 99.14295429 0.07529381 102.82054138 0.09715271 C103.91620926 0.09265106 105.01187714 0.08814941 106.14074707 0.08351135 C107.14037476 0.09341599 108.14000244 0.10332062 109.16992188 0.11352539 C110.47430128 0.11717023 110.47430128 0.11717023 111.80503178 0.12088871 C114.52709039 0.5879646 115.40441116 1.28893866 117.02146912 3.50120544 C118.38684182 11.52197085 114.45100671 17.64909165 110.84568787 24.59886169 C110.19795676 25.87679627 109.55173121 27.15549494 108.90692139 28.43490601 C107.20380025 31.8050354 105.48212424 35.1653237 103.75578308 38.52360535 C102.04477264 41.85813534 100.34847581 45.20011257 98.65232849 48.54222107 C98.32131795 49.1944033 97.99030741 49.84658552 97.64926624 50.51853085 C96.98399521 51.82936703 96.31878962 53.14023644 95.65365028 54.45113945 C94.65632987 56.41502038 93.65686778 58.37780029 92.65713501 60.3404541 C88.29501051 68.91531855 84.07514243 77.54959913 79.95747375 86.24464417 C74.91037956 96.88955581 69.62102891 107.41149933 64.33396912 117.93870544 C63.32401146 119.95358316 62.31424522 121.96855683 61.30467224 123.98362732 C58.87912689 128.82392021 56.4512846 133.66305486 54.02146912 138.50120544 C54.81660416 138.50707169 55.6117392 138.51293793 56.43096924 138.51898193 C63.92076507 138.57686196 71.41022644 138.64891102 78.89972401 138.73692036 C82.75026168 138.78166716 86.6006925 138.82091342 90.45140076 138.84764099 C94.16688476 138.87363151 97.88195851 138.91400279 101.59718895 138.96439171 C103.01532073 138.98108941 104.43352351 138.99258561 105.85173988 138.99881935 C107.83657152 139.00842798 109.82127493 139.03816828 111.80589294 139.0688324 C112.93618423 139.07993546 114.06647552 139.09103851 115.23101807 139.10247803 C118.02146912 139.50120544 118.02146912 139.50120544 119.88568115 140.82632446 C121.7802904 143.62019541 121.41131162 146.37185404 121.41990662 149.68870544 C121.42421188 150.73707581 121.42421188 150.73707581 121.42860413 151.80662537 C121.43064337 153.28262646 121.42512314 154.75865466 121.4125824 156.23460388 C121.39652491 158.49335683 121.41243382 160.75032062 121.43162537 163.00901794 C121.42964291 164.44391773 121.42579917 165.87881639 121.41990662 167.31370544 C121.41652283 168.61952576 121.41313904 169.92534607 121.40965271 171.27073669 C121.02146912 174.50120544 121.02146912 174.50120544 119.80796814 176.17972088 C117.43943285 177.93174133 115.98222031 177.87597816 113.04930115 177.87542725 C112.02298584 177.88244156 110.99667053 177.88945587 109.93925476 177.89668274 C108.81396362 177.889039 107.68867249 177.88139526 106.52928162 177.8735199 C105.34372681 177.87717056 104.158172 177.88082123 102.93669128 177.88458252 C99.68457086 177.89130579 96.43282282 177.88456507 93.18073273 177.87125039 C89.77884879 177.85993951 86.37697974 177.86404312 82.9750824 177.86599731 C77.26197897 177.86688041 71.54899416 177.85579679 65.83592224 177.83738708 C59.22902937 177.81621916 52.62231031 177.81270947 46.0153904 177.81894904 C39.66206694 177.82464214 33.30880474 177.8189977 26.95549011 177.8077755 C24.25060392 177.80312877 21.54575519 177.80225597 18.84086609 177.80436134 C15.06502725 177.80473094 11.28945546 177.79214113 7.51365662 177.77586365 C6.38836548 177.77834106 5.26307434 177.78081848 4.10368347 177.78337097 C3.07736816 177.77628616 2.05105286 177.76920135 0.99363708 177.76190186 C-0.34587509 177.75882255 -0.34587509 177.75882255 -1.71244812 177.75568104 C-3.97853088 177.50120544 -3.97853088 177.50120544 -6.97853088 175.50120544 C-8.72989276 167.88447673 -5.73063713 161.88877067 -2.04103088 155.43870544 C-0.93361388 153.41242525 0.17173055 151.38501143 1.27537537 149.35667419 C2.17860535 147.7157782 2.17860535 147.7157782 3.1000824 146.04173279 C6.28562132 140.21171922 9.28507598 134.28361338 12.31138611 128.36994934 C14.12963044 124.81962733 15.95667054 121.27383885 17.78318787 117.72776794 C18.14220184 117.03042038 18.50121582 116.33307281 18.87110901 115.61459351 C23.99075638 105.67251275 29.14489109 95.74832338 34.2978363 85.82347107 C36.09587885 82.35778225 37.89105037 78.89061387 39.68553162 75.42308044 C40.30245102 74.23149903 40.91939422 73.03992994 41.53636169 71.84837341 C42.68000806 69.63936368 43.82313289 67.4300838 44.96556091 65.22044373 C49.594195 56.28389537 54.30303305 47.39055027 59.02146912 38.50120544 C57.80997444 38.5111982 57.80997444 38.5111982 56.57400513 38.52139282 C48.96671115 38.58147601 41.35953203 38.62716547 33.7520628 38.65664196 C29.84086685 38.67230553 25.92986678 38.69355607 22.01878357 38.7275238 C18.24514653 38.76009313 14.47169802 38.77805325 10.69793129 38.78583717 C9.25738875 38.7913851 7.81685666 38.8022188 6.37639427 38.81839561 C4.36064572 38.84013503 2.34470791 38.84143055 0.32884216 38.84178162 C-0.81921402 38.84844345 -1.9672702 38.85510529 -3.15011597 38.86196899 C-5.97853088 38.50120544 -5.97853088 38.50120544 -7.8474884 37.1750946 C-9.69742155 34.4372814 -9.38689967 31.82163235 -9.41212463 28.56761169 C-9.41736649 27.89326584 -9.42260834 27.21891998 -9.42800903 26.5241394 C-9.43442527 25.09943517 -9.43309727 23.67467794 -9.42457581 22.24998474 C-9.41607228 20.07429723 -9.4448143 17.90124241 -9.47657776 15.72581482 C-9.47819015 14.3397479 -9.47761151 12.95367634 -9.47462463 11.56761169 C-9.47740417 9.67957825 -9.47740417 9.67957825 -9.48023987 7.75340271 C-8.60893689 2.10540903 -5.55619219 0.00133663 0 0 Z " fill="#DADADA" transform="translate(791.9785308837891,21.498794555664063)"/>
<path d="M0 0 C0.74121094 -0.02191406 1.48242188 -0.04382813 2.24609375 -0.06640625 C5.69313438 0.86946819 7.52577066 2.75144441 9.5625 5.5625 C11.49615141 9.04742918 13.08451075 12.665876 14.6875 16.3125 C15.46510364 18.0381 16.2427813 19.76366739 17.02223206 21.48843384 C17.59282486 22.75243578 18.16198186 24.01708666 18.72984314 25.28231812 C22.30042308 33.23427843 25.976968 41.13709804 29.64758301 49.04324341 C30.88175358 51.70204942 32.11438865 54.36156265 33.34667969 57.02124023 C38.95706527 69.12646287 44.60509147 81.21362096 50.27612305 93.29052734 C55.86374848 105.19139496 61.40175466 117.11496308 66.93017578 129.04345703 C68.65801037 132.76840583 70.38914754 136.49180565 72.12109375 140.21484375 C73.00442151 142.11443926 73.88768786 144.01406332 74.77093506 145.91369629 C75.59697984 147.68975455 76.42372184 149.46548849 77.25048828 151.24121094 C78.24448448 153.37974174 79.23555992 155.51963355 80.22314453 157.66113281 C81.08053273 159.51844258 81.94540561 161.37232677 82.81982422 163.22167969 C83.18736816 164.01348633 83.55491211 164.80529297 83.93359375 165.62109375 C84.25126709 166.2958374 84.56894043 166.97058105 84.89624023 167.66577148 C86.04077206 170.92405941 85.59269408 173.3431435 84.5625 176.5625 C82.0995903 179.15939138 80.66496969 179.55112164 77.06665039 179.95068359 C75.6812885 179.97040562 74.29560746 179.97283131 72.91015625 179.9609375 C72.17300888 179.96380768 71.43586151 179.96667786 70.67637634 179.96963501 C69.12058746 179.97167226 67.56477277 179.96616606 66.0090332 179.95361328 C63.63629404 179.93757633 61.26526398 179.95346016 58.89257812 179.97265625 C57.37760043 179.97067331 55.86262379 179.96682858 54.34765625 179.9609375 C53.6423024 179.96701019 52.93694855 179.97308289 52.21022034 179.9793396 C47.81321841 179.91703948 44.96162862 179.40612029 41.5625 176.5625 C39.80224609 173.78930664 39.80224609 173.78930664 38.2109375 170.41015625 C37.91746429 169.79471451 37.62399109 169.17927277 37.32162476 168.54518127 C36.38293718 166.55915121 35.46945915 164.56320196 34.5625 162.5625 C34.26734497 161.91496765 33.97218994 161.2674353 33.66809082 160.60028076 C31.80256697 156.49057446 29.97760125 152.36371696 28.16555786 148.23019409 C21.24804661 132.45669711 14.11790247 116.78628119 6.88330078 101.15600586 C6.53384903 100.399729 6.18439728 99.64345215 5.82435608 98.86425781 C5.17076577 97.45023814 4.51577102 96.03686645 3.8591156 94.62426758 C2.62661855 91.9580451 1.49237388 89.35212164 0.5625 86.5625 C-3.71364602 94.93531356 -7.68650351 103.40764729 -11.5 112 C-12.06116157 113.2589955 -12.62261015 114.5178631 -13.18432617 115.77661133 C-14.34987043 118.38900831 -15.51419272 121.00194489 -16.67773438 123.61523438 C-18.40907883 127.5015246 -20.14861102 131.38410758 -21.890625 135.265625 C-22.17103134 135.89070953 -22.45143768 136.51579407 -22.74034119 137.15982056 C-24.12301615 140.24146491 -25.50749233 143.32228275 -26.89477539 146.40185547 C-29.2609645 151.66351761 -31.60885945 156.92822031 -33.85546875 162.2421875 C-34.21342529 163.07983643 -34.57138184 163.91748535 -34.94018555 164.78051758 C-35.57718709 166.27797799 -36.20347691 167.78007073 -36.81567383 169.2878418 C-38.96166629 174.30720783 -41.56715883 177.12732942 -46.4375 179.5625 C-48.9440271 179.69757003 -51.42153321 179.77507842 -53.9296875 179.80078125 C-54.67203644 179.808853 -55.41438538 179.81692474 -56.17922974 179.82524109 C-57.75113593 179.83907717 -59.32307212 179.84980146 -60.89501953 179.85766602 C-63.2964783 179.87488512 -65.69656218 179.9187728 -68.09765625 179.96289062 C-69.62498988 179.97301729 -71.15233521 179.98153348 -72.6796875 179.98828125 C-73.39647675 180.00578934 -74.11326599 180.02329742 -74.85177612 180.04133606 C-78.11651166 180.02716404 -80.15025127 179.74620033 -82.92236328 177.97338867 C-85.07470556 174.54857719 -84.94227353 172.56734685 -84.4375 168.5625 C-83.46514409 165.59851456 -82.1680132 162.83949253 -80.80859375 160.03515625 C-80.42761032 159.22192902 -80.04662689 158.40870178 -79.65409851 157.5708313 C-78.40685685 154.91613997 -77.14107086 152.27075585 -75.875 149.625 C-75.0018179 147.77509651 -74.12992298 145.92458494 -73.25927734 144.07348633 C-71.49831274 140.33439754 -69.73026913 136.59879841 -67.95556641 132.86621094 C-65.71883876 128.16035187 -63.50005573 123.44638628 -61.29296875 118.7265625 C-60.97695206 118.05084702 -60.66093536 117.37513153 -60.33534241 116.67893982 C-59.71535059 115.35307706 -59.09542035 114.02718551 -58.47555542 112.70126343 C-57.25937679 110.10220445 -56.03950993 107.50488453 -54.81959534 104.90757751 C-49.51448497 93.61159598 -44.26470897 82.29007601 -39.01708984 70.96728516 C-37.44789345 67.58490294 -35.87494722 64.20429066 -34.30078125 60.82421875 C-33.77814697 59.70112305 -33.2555127 58.57802734 -32.71704102 57.42089844 C-31.65974644 55.14903651 -30.60164709 52.87754893 -29.54272461 50.60644531 C-26.38266909 43.81130257 -23.2748447 36.99557057 -20.203125 30.16015625 C-19.11666701 27.75149924 -18.02956123 25.34313555 -16.94229126 22.93484497 C-16.23594574 21.36480004 -15.53291017 19.79326142 -14.83334351 18.22018433 C-13.85395554 16.01808347 -12.86360864 13.82120891 -11.87109375 11.625 C-11.58304871 10.96899307 -11.29500366 10.31298615 -10.99822998 9.63710022 C-8.60349199 4.38355826 -6.21816842 -0.01077672 0 0 Z " fill="#DADADA" transform="translate(1301.4375,19.4375)"/>
<path d="M0 0 C4.48493699 1.26947937 6.85771637 5.16535287 9.03540039 9.0534668 C9.66233788 10.37808841 10.27758085 11.70828988 10.8828125 13.04296875 C11.38884758 14.12396851 11.38884758 14.12396851 11.90510559 15.22680664 C13.000576 17.57358633 14.08042849 19.92719135 15.16015625 22.28125 C15.92565172 23.92923083 16.69210033 25.57676923 17.45947266 27.22387695 C19.34913236 31.28637584 21.22653468 35.35438415 23.09906006 39.42480469 C24.46421351 42.3899103 25.83744969 45.35124741 27.2109375 48.3125 C29.08692928 52.36305598 30.95598748 56.41671777 32.8203125 60.47265625 C37.00002516 69.56250393 41.20453023 78.64086853 45.41015625 87.71875 C45.8187085 88.60069031 46.22726074 89.48263062 46.64819336 90.39129639 C51.75813749 101.41954451 56.88633484 112.43892966 62.05108643 123.44161987 C62.96299555 125.38565502 63.8731098 127.33052063 64.78271484 129.27563477 C67.48446743 135.04943582 70.19804239 140.81645053 72.96081543 146.56135559 C74.2000393 149.1425364 75.42902454 151.72851856 76.65655518 154.3152771 C77.50799241 156.09933237 78.37364528 157.87658163 79.23974609 159.65356445 C84.27517281 170.2914417 84.27517281 170.2914417 83.09765625 175.59375 C79.79861435 179.03908567 77.26713761 180.06099739 72.50123596 180.17518616 C71.45261635 180.16774635 71.45261635 180.16774635 70.3828125 180.16015625 C69.64945175 180.16635483 68.916091 180.17255341 68.1605072 180.17893982 C66.61491213 180.18601929 65.0692405 180.18289661 63.52368164 180.17016602 C61.16994585 180.15630764 58.82019674 180.19037898 56.46679688 180.22851562 C54.95963445 180.22946706 53.45246709 180.22760669 51.9453125 180.22265625 C51.24825699 180.23591446 50.55120148 180.24917267 49.83302307 180.26283264 C45.45003256 180.18011715 42.61866354 179.22238108 39.41017151 176.17710876 C36.99959409 173.26909771 35.53630768 170.03558914 34.03125 166.59375 C33.67530258 165.81351974 33.31935516 165.03328949 32.95262146 164.22941589 C31.79869939 161.69058038 30.66683268 159.1425689 29.53515625 156.59375 C28.73782565 154.8279286 27.93914787 153.06271491 27.13916016 151.2980957 C25.14496507 146.89001425 23.16842545 142.47428273 21.1975708 138.0557251 C19.57886627 134.43252523 17.94576264 130.81587291 16.3125 127.19921875 C13.67816803 121.35904703 11.06552943 115.50941702 8.46240234 109.65527344 C7.15728203 106.727508 5.84231725 103.80440109 4.5234375 100.8828125 C4.14010254 100.03050049 3.75676758 99.17818848 3.36181641 98.30004883 C2.67014854 96.76222493 1.97601955 95.22550429 1.27880859 93.69018555 C-0.90234375 88.82006447 -0.90234375 88.82006447 -0.90234375 86.59375 C-1.56234375 86.59375 -2.22234375 86.59375 -2.90234375 86.59375 C-3.15653076 87.41222412 -3.41071777 88.23069824 -3.67260742 89.07397461 C-5.09154154 93.13527563 -6.79767562 96.99717656 -8.578125 100.91015625 C-9.12060379 102.11201317 -9.12060379 102.11201317 -9.67404175 103.33815002 C-10.85156353 105.94543449 -12.0331302 108.55086306 -13.21484375 111.15625 C-14.44241407 113.87021442 -15.66911212 116.58457201 -16.89576721 119.2989502 C-17.71852114 121.11934226 -18.54163169 122.93957319 -19.36509705 124.75964355 C-21.83897702 130.22978311 -24.29778491 135.70629582 -26.73828125 141.19140625 C-27.02859726 141.84305252 -27.31891327 142.49469879 -27.61802673 143.16609192 C-28.94109701 146.13606285 -30.26168612 149.10708048 -31.57739258 152.08032227 C-34.14492827 157.83985829 -36.80037865 163.55013522 -39.578125 169.2109375 C-40.14055908 170.35933105 -40.70299316 171.50772461 -41.2824707 172.69091797 C-43.45060734 176.57624496 -44.67341823 178.18410816 -48.90234375 179.59375 C-51.35690972 179.72578445 -53.78238767 179.80576453 -56.23828125 179.83203125 C-56.95464752 179.840103 -57.67101379 179.84817474 -58.40908813 179.85649109 C-59.92374264 179.87030713 -61.43842796 179.88104036 -62.953125 179.88891602 C-64.49911646 179.90044599 -66.04506781 179.92091421 -67.59082031 179.95043945 C-69.82774836 179.99316354 -72.06349562 180.00928948 -74.30078125 180.01953125 C-74.98739838 180.03703934 -75.6740155 180.05454742 -76.38143921 180.07258606 C-79.75492362 180.057417 -81.88843978 179.60117663 -84.87744141 178.00463867 C-86.90234375 175.59375 -86.90234375 175.59375 -87.43237305 172.34448242 C-86.8034809 167.89415073 -85.41351692 164.57245717 -83.421875 160.58203125 C-82.87555923 159.4458712 -82.87555923 159.4458712 -82.31820679 158.28675842 C-81.12926305 155.82048292 -79.92200654 153.36365135 -78.71484375 150.90625 C-77.88363696 149.18840492 -77.05397919 147.46980951 -76.22583008 145.75048828 C-74.5644131 142.30256026 -72.89777758 138.85723664 -71.22753906 135.41357422 C-68.10789517 128.96570652 -65.09043934 122.4727818 -62.08984375 115.96875 C-61.04431395 113.70961546 -59.99874149 111.45050067 -58.953125 109.19140625 C-58.4473291 108.09715332 -57.9415332 107.00290039 -57.42041016 105.87548828 C-54.87950617 100.38259163 -52.32759286 94.89481232 -49.77734375 89.40625 C-45.56166076 80.32932096 -41.35191269 71.24965982 -37.14692688 62.16777039 C-35.10509238 57.75821281 -33.06173195 53.34937557 -31.01489258 48.94213867 C-27.56291523 41.50754686 -24.11249801 34.07282969 -20.71864319 26.61148071 C-19.43765578 23.79730023 -18.14904493 20.98664877 -16.85934448 18.17645264 C-16.26910492 16.88465542 -15.68269365 15.59110124 -15.10037231 14.29571533 C-14.30577714 12.52868909 -13.49700307 10.76805908 -12.6875 9.0078125 C-12.242854 8.0276416 -11.79820801 7.0474707 -11.34008789 6.03759766 C-8.46070554 1.14328328 -5.59198873 0.26681457 0 0 Z " fill="#DADADA" transform="translate(646.90234375,19.40625)"/>
<path d="M0 0 C0.74330566 -0.00428513 1.48661133 -0.00857025 2.25244141 -0.01298523 C3.82258079 -0.01872326 5.39274675 -0.01923266 6.96289062 -0.01489258 C9.36634549 -0.01173014 11.7685721 -0.03520492 14.171875 -0.06054688 C15.69791511 -0.06281968 17.22395854 -0.06352345 18.75 -0.0625 C19.46881348 -0.07170975 20.18762695 -0.08091949 20.92822266 -0.09040833 C25.87951326 -0.04443227 25.87951326 -0.04443227 28.06583118 1.47881031 C29.87940176 4.00275744 29.7443201 5.73001328 29.73576355 8.82463074 C29.73988754 9.97307968 29.74401154 11.12152863 29.7482605 12.30477905 C29.73747467 13.56569366 29.72668884 14.82660828 29.71557617 16.12573242 C29.71473001 17.46605917 29.71520483 18.80638732 29.71690369 20.14671326 C29.71776551 23.78703688 29.70010977 27.42706481 29.67918181 31.06731963 C29.66044604 34.87098049 29.65866703 38.6746479 29.65510559 42.47834778 C29.64577599 49.6819211 29.62114989 56.88535806 29.59105712 64.0888713 C29.55754153 72.28949111 29.54103427 80.49011739 29.52597082 88.69078863 C29.49460108 105.56086508 29.44182287 122.43080875 29.375 139.30078125 C30.1472995 139.29634003 30.919599 139.2918988 31.71530151 139.287323 C38.98444637 139.24729121 46.25353798 139.21681982 53.52276421 139.19715691 C57.2601783 139.18670827 60.9975015 139.17252955 64.73486328 139.14990234 C68.339905 139.12821221 71.94485917 139.11622076 75.54996109 139.11102676 C76.92711898 139.10732409 78.30427194 139.10009391 79.68139267 139.08932114 C81.60639545 139.0748579 83.53148587 139.07396477 85.45654297 139.07373047 C86.55352509 139.06928925 87.6505072 139.06484802 88.7807312 139.06027222 C91.375 139.30078125 91.375 139.30078125 93.375 141.30078125 C93.5745697 143.85828578 93.65486826 146.30516266 93.640625 148.86328125 C93.64253845 149.61037354 93.6444519 150.35746582 93.64642334 151.12719727 C93.64778498 152.70752296 93.64409 154.28785983 93.63574219 155.86816406 C93.625042 158.29127047 93.63563779 160.71363548 93.6484375 163.13671875 C93.6471159 164.67057456 93.6445535 166.2044299 93.640625 167.73828125 C93.64467346 168.46539307 93.64872192 169.19250488 93.65289307 169.94165039 C93.60492361 175.07085764 93.60492361 175.07085764 91.375 177.30078125 C89.57275391 177.55246353 89.57275391 177.55246353 87.3515625 177.55474854 C86.51028809 177.56038818 85.66901367 177.56602783 84.80224609 177.57183838 C83.87750488 177.56778992 82.95276367 177.56374146 82 177.55957031 C81.02756348 177.56307495 80.05512695 177.56657959 79.05322266 177.57019043 C75.8270766 177.57901927 72.60114843 177.57315449 69.375 177.56640625 C67.14062457 177.56775257 64.90624942 177.56969282 62.671875 177.57220459 C57.98434669 177.57515742 53.29689448 177.57085309 48.609375 177.56152344 C42.58978212 177.55012886 36.57036758 177.55668748 30.55078125 177.56866837 C25.93553312 177.57588267 21.32032751 177.57360101 16.70507812 177.56841278 C14.48502583 177.56707509 12.26496972 177.56872814 10.04492188 177.57337189 C6.94650996 177.57843004 3.84839007 177.57073684 0.75 177.55957031 C-0.63711182 177.56564301 -0.63711182 177.56564301 -2.05224609 177.57183838 C-2.89352051 177.56619873 -3.73479492 177.56055908 -4.6015625 177.55474854 C-5.70105225 177.55361746 -5.70105225 177.55361746 -6.82275391 177.55246353 C-8.625 177.30078125 -8.625 177.30078125 -10.625 175.30078125 C-10.87947559 172.3584671 -10.87947559 172.3584671 -10.88569641 168.50598145 C-10.88952196 167.79922917 -10.89334751 167.09247689 -10.89728898 166.36430788 C-10.90764878 163.9843338 -10.90362129 161.60459963 -10.8996582 159.22460938 C-10.904003 157.5231453 -10.90918537 155.82168318 -10.91514587 154.120224 C-10.92857123 149.49016858 -10.92911069 144.86019462 -10.92658257 140.23012352 C-10.92551538 136.37049017 -10.93038968 132.51087348 -10.935188 128.65124369 C-10.94629514 119.54954701 -10.94671363 110.44789159 -10.94067383 101.34619141 C-10.93463003 91.94284281 -10.94695258 82.53964368 -10.9682439 73.13632059 C-10.9858299 65.07431026 -10.99186607 57.01234763 -10.98860615 48.95031881 C-10.98678855 44.13017306 -10.98947683 39.31013396 -11.00332069 34.49000549 C-11.01584598 29.95921092 -11.01400557 25.42865032 -11.00090981 20.89785957 C-10.99853295 19.23131292 -11.00131807 17.56475007 -11.00953293 15.89822197 C-11.01990908 13.6303989 -11.01197469 11.36337435 -10.9992218 9.09558105 C-10.99938954 7.82426079 -10.99955729 6.55294052 -10.99973011 5.2430954 C-10.87606917 4.27213173 -10.75240824 3.30116806 -10.625 2.30078125 C-6.97442297 -0.13293677 -4.22260582 -0.00535398 0 0 Z " fill="#DADADA" transform="translate(408.625,21.69921875)"/>
<path d="M0 0 C1.11140099 -0.00786278 1.11140099 -0.00786278 2.24525452 -0.0158844 C3.81119535 -0.02230308 5.37718441 -0.02096953 6.94311523 -0.01245117 C9.33600017 -0.00394767 11.72649202 -0.03268903 14.11914062 -0.06445312 C15.64192637 -0.06606547 17.16471633 -0.06548696 18.6875 -0.0625 C19.40115219 -0.07373398 20.11480438 -0.08496796 20.8500824 -0.09654236 C24.02369903 -0.05215495 26.00753621 0.13896322 28.59930515 2.03557587 C31.03278699 5.25811192 30.91068202 7.28503142 30.91136169 11.30358887 C30.91966329 12.33966254 30.91966329 12.33966254 30.92813259 13.396667 C30.94174427 15.71077441 30.92676829 18.02380418 30.91186523 20.33789062 C30.91564825 21.99699868 30.92114815 23.65610358 30.92823792 25.31520081 C30.94221218 29.82142118 30.93100901 34.32726059 30.9145267 38.83345985 C30.90068753 43.54681328 30.90713499 48.26014434 30.91065979 52.97351074 C30.91336281 60.88914131 30.89987842 68.80462033 30.87670898 76.72021484 C30.85009866 85.87478275 30.8483518 95.02909722 30.86009735 104.18369055 C30.87087256 112.98618662 30.86469008 121.78859093 30.85054207 130.59107971 C30.84478003 134.33901638 30.84486666 138.08688594 30.84960747 141.83482361 C30.85437604 146.24749019 30.84428061 150.65987889 30.82265282 155.0724926 C30.81708313 156.69303894 30.81662132 158.31361198 30.82160568 159.93416023 C30.82755145 162.1442825 30.81506811 164.35355314 30.7978363 166.56359863 C30.79540641 167.8009803 30.79297651 169.03836197 30.79047298 170.31324005 C30.37930295 173.68673329 29.86651071 175.11188277 27.41015625 177.43359375 C24.66025799 177.82712028 22.31501127 177.9713755 19.56640625 177.9296875 C18.80090454 177.93114273 18.03540283 177.93259796 17.2467041 177.93409729 C15.62943717 177.93243848 14.01215442 177.92087898 12.39501953 177.90014648 C9.91891461 177.87119615 7.44495124 177.87953513 4.96875 177.89257812 C3.39712501 177.88634041 1.82550678 177.8779492 0.25390625 177.8671875 C-0.48678101 177.87012314 -1.22746826 177.87305878 -1.99060059 177.87608337 C-7.05019099 177.78318358 -7.05019099 177.78318358 -9.28515053 176.3353653 C-11.25884263 173.45843498 -10.96767202 171.06418394 -10.97079468 167.60119629 C-10.97781464 166.55309524 -10.97781464 166.55309524 -10.98497641 165.48382044 C-10.99696565 163.13680839 -10.98745424 160.79037601 -10.97802734 158.44335938 C-10.98209132 156.76307331 -10.98743221 155.08278991 -10.99395752 153.4025116 C-11.00765774 148.83438529 -11.00232135 144.26646178 -10.99282026 139.69833183 C-10.98523765 134.92310912 -10.99226538 130.14790404 -10.99697876 125.37268066 C-11.0024404 117.35275141 -10.995234 109.33290497 -10.98095703 101.31298828 C-10.96462973 92.03402968 -10.96991795 82.75526882 -10.98643625 73.47631502 C-11.0000395 65.51702062 -11.00197647 57.55778583 -10.99412024 49.59848356 C-10.98943732 44.84148637 -10.98883581 40.0845822 -10.99872971 35.32759094 C-11.00738023 30.85586072 -11.00141265 26.38438603 -10.98404694 21.91268349 C-10.98007182 20.26913694 -10.98123359 18.62556897 -10.98783493 16.98203087 C-10.99600039 14.74305824 -10.98579049 12.50491087 -10.97079468 10.26599121 C-10.9696636 9.01164024 -10.96853252 7.75728928 -10.96736717 6.46492767 C-10.58984375 3.43359375 -10.58984375 3.43359375 -9.2784214 1.5318222 C-6.43682023 -0.31631742 -3.28120437 -0.0134592 0 0 Z " fill="#DADADA" transform="translate(1426.58984375,21.56640625)"/>
<path d="M0 0 C1.11283607 -0.00218285 1.11283607 -0.00218285 2.24815369 -0.00440979 C3.81236713 -0.00275358 5.37659733 0.0087768 6.94067383 0.02954102 C9.33550082 0.05854116 11.72811917 0.05013731 14.12304688 0.03710938 C15.64454201 0.04334587 17.16603016 0.05173613 18.6875 0.0625 C19.40317642 0.05956436 20.11885284 0.05662872 20.85621643 0.05360413 C25.73966147 0.14639234 25.73966147 0.14639234 27.9659214 1.5943222 C29.94902919 4.47014476 29.65516829 6.86136184 29.65829468 10.32849121 C29.66531464 11.37659226 29.66531464 11.37659226 29.67247641 12.44586706 C29.68446565 14.79287911 29.67495424 17.13931149 29.66552734 19.48632812 C29.66959132 21.16661419 29.67493221 22.84689759 29.68145752 24.5271759 C29.69515774 29.09530221 29.68982135 33.66322572 29.68032026 38.23135567 C29.67273765 43.00657838 29.67976538 47.78178346 29.68447876 52.55700684 C29.6899404 60.57693609 29.682734 68.59678253 29.66845703 76.61669922 C29.65212973 85.89565782 29.65741795 95.17441868 29.67393625 104.45337248 C29.6875395 112.41266688 29.68947647 120.37190167 29.68162024 128.33120394 C29.67693732 133.08820113 29.67633581 137.8451053 29.68622971 142.60209656 C29.69488023 147.07382678 29.68891265 151.54530147 29.67154694 156.01700401 C29.66757182 157.66055056 29.66873359 159.30411853 29.67533493 160.94765663 C29.68350039 163.18662926 29.67329049 165.42477663 29.65829468 167.66369629 C29.6571636 168.91804726 29.65603252 170.17239822 29.65486717 171.46475983 C29.27734375 174.49609375 29.27734375 174.49609375 27.97265053 176.3978653 C25.06779317 178.27964684 21.78511646 177.94297092 18.43359375 177.9296875 C17.66809204 177.93492935 16.90259033 177.9401712 16.1138916 177.9455719 C14.49667574 177.95199057 12.87941319 177.95065705 11.26220703 177.94213867 C8.78594028 177.93362331 6.31197656 177.96239653 3.8359375 177.99414062 C2.26432361 177.99575261 0.69270563 177.99517516 -0.87890625 177.9921875 C-1.61959351 178.00342148 -2.36028076 178.01465546 -3.12341309 178.02622986 C-8.23521728 177.95681407 -8.23521728 177.95681407 -10.41754246 175.89411163 C-12.16993866 172.67425643 -12.10314434 170.2884811 -12.1103363 166.62609863 C-12.11572184 165.93538285 -12.12110738 165.24466706 -12.12665612 164.5330205 C-12.14096106 162.21909793 -12.13382605 159.9057454 -12.12670898 157.59179688 C-12.1324112 155.9326888 -12.13937488 154.27358464 -12.14750671 152.61448669 C-12.16546851 148.1083439 -12.16426423 143.60239551 -12.15856433 139.09622765 C-12.15547722 135.33608801 -12.16155951 131.57598598 -12.16760308 127.81585169 C-12.18165625 118.94702695 -12.18008007 110.07829853 -12.16870117 101.20947266 C-12.1572153 92.0548703 -12.17130167 82.90056073 -12.19809765 73.74599695 C-12.2202347 65.88942222 -12.22689665 58.03293953 -12.22102123 50.17633581 C-12.21764613 45.48244052 -12.22010351 40.788733 -12.23727226 36.09486389 C-12.25270792 31.68215682 -12.24882372 27.26988458 -12.22996712 22.8571949 C-12.22627201 21.23663989 -12.22941648 19.61605289 -12.23985291 17.99552727 C-12.25300231 15.78520926 -12.24157148 13.57634373 -12.22386169 11.36608887 C-12.22365241 10.1287072 -12.22344313 8.89132553 -12.2232275 7.61644745 C-11.07795295 0.4772806 -6.33928943 -0.09979012 0 0 Z " fill="#DADADA" transform="translate(31.72265625,21.50390625)"/>
<path d="M0 0 C0.99319638 -0.00701996 0.99319638 -0.00701996 2.00645733 -0.01418173 C4.22366594 -0.02614146 6.44025757 -0.01667118 8.6574707 -0.00723267 C10.24761313 -0.01129795 11.83775272 -0.01663959 13.42788696 -0.02316284 C17.74603314 -0.03684743 22.06396445 -0.03153311 26.38211441 -0.02202559 C30.89928012 -0.0144349 35.41642733 -0.02147295 39.93359375 -0.02618408 C47.51964626 -0.03164336 55.10561118 -0.02444551 62.69165039 -0.01016235 C71.46449268 0.0061645 80.23712581 0.00087612 89.00996304 -0.01564157 C96.53957377 -0.02925154 104.06912151 -0.0311785 111.59874058 -0.02332556 C116.09697969 -0.01864635 120.59512046 -0.018031 125.09335327 -0.02793503 C129.32215551 -0.03659531 133.55068785 -0.03060007 137.77946091 -0.01325226 C139.33228482 -0.00928238 140.8851314 -0.01043004 142.43794632 -0.01704025 C144.55610643 -0.02522639 146.67339921 -0.01497086 148.79150391 0 C149.97726517 0.00113108 151.16302643 0.00226215 152.38471985 0.00342751 C155.69465785 0.41842777 157.10102618 0.98348628 159.39575195 3.38095093 C159.80470031 6.05114317 159.95652904 8.22195323 159.89575195 10.88095093 C159.91895508 11.89608765 159.91895508 11.89608765 159.94262695 12.93173218 C159.90369857 17.86590437 159.90369857 17.86590437 157.77014828 20.02927685 C154.76381878 21.74069192 152.31032224 22.06538315 148.87416077 22.47648621 C147.89427339 22.59882906 147.89427339 22.59882906 146.89459032 22.72364348 C144.70882306 22.99342243 142.52137623 23.24538246 140.33349609 23.49740601 C138.76455889 23.68725183 137.19574938 23.87815555 135.62705994 24.07003784 C131.36810518 24.58759654 127.10742712 25.08936724 122.84617925 25.58764863 C118.38732636 26.11100207 113.92992281 26.6464472 109.47227478 27.1799469 C101.98565314 28.07389217 94.49783981 28.95728099 87.00927734 29.83480835 C78.35167579 30.84949167 69.69638687 31.88235971 61.0420714 32.92467004 C53.61208046 33.81902689 46.18095201 34.70341472 38.74878591 35.57951277 C34.30969421 36.10280808 29.8710895 36.62957828 25.43348885 37.16538429 C21.26107404 37.6686194 17.08737212 38.15932922 12.91234779 38.64041901 C11.38037613 38.81902111 9.84890498 39.00197837 8.31801224 39.18960381 C6.22796419 39.44504013 4.13667972 39.68464093 2.04432678 39.92033386 C0.874236 40.05839353 -0.29585478 40.19645319 -1.50140285 40.33869648 C-4.77246454 40.38324169 -6.70927388 39.8524484 -9.60424805 38.38095093 C-11.56988506 36.41531392 -10.81530158 32.63880839 -10.8425293 29.95126343 C-10.85060104 29.20512787 -10.85867279 28.45899231 -10.86698914 27.69024658 C-10.88084346 26.10816787 -10.89155957 24.52605909 -10.89941406 22.94393921 C-10.91662947 20.52262797 -10.96050037 18.10268124 -11.00463867 15.68173218 C-11.01476507 14.146586 -11.02328134 12.61142818 -11.0300293 11.07626343 C-11.04753738 10.35117584 -11.06504547 9.62608826 -11.08308411 8.87902832 C-11.06140003 3.85929635 -11.06140003 3.85929635 -8.98764038 1.68939781 C-5.84335652 -0.03676718 -3.58357256 0.00341831 0 0 Z " fill="#DADADA" transform="translate(570.604248046875,235.61904907226563)"/>
<path d="M0 0 C4.45406501 3.16923857 7.31388263 5.75430152 9 11 C9.61857369 17.73558022 10.12729714 24.30717636 6 30 C2.04295205 34.59873141 -1.60834076 37.60773476 -7.76953125 38.3203125 C-14.38571334 38.56997975 -19.59274241 37.99325319 -25 34 C-29.65685474 29.4690062 -31.69315782 23.86386039 -32.375 17.5 C-31.67265611 10.94479035 -30.11180718 6.66327163 -25.1875 2.125 C-17.26935074 -4.20663484 -8.8693586 -4.76317406 0 0 Z " fill="#DADADA" transform="translate(1178,163)"/>
</svg>
