<?xml version="1.0" encoding="UTF-8"?>
<!DOCTYPE svg PUBLIC "-//W3C//DTD SVG 1.1//EN" "http://www.w3.org/Graphics/SVG/1.1/DTD/svg11.dtd">
<svg xmlns="http://www.w3.org/2000/svg" version="1.1" width="1477px" height="296px" style="shape-rendering:geometricPrecision; text-rendering:geometricPrecision; image-rendering:optimizeQuality; fill-rule:evenodd; clip-rule:evenodd" xmlns:xlink="http://www.w3.org/1999/xlink">
<g><path style="opacity:0.978" fill="#d9dad9" d="M 154.5,19.5 C 158.182,19.3347 161.848,19.5014 165.5,20C 198.333,51.5 231.167,83 264,114.5C 264.333,84.1667 264.667,53.8333 265,23.5C 265.75,22.8742 266.584,22.3742 267.5,22C 278.833,21.3333 290.167,21.3333 301.5,22C 302.308,22.3076 302.975,22.8076 303.5,23.5C 304.662,81.7926 304.829,140.126 304,198.5C 299.705,202.323 295.205,202.489 290.5,199C 258.695,166.194 226.528,133.694 194,101.5C 193.667,132.833 193.333,164.167 193,195.5C 192.167,196.333 191.333,197.167 190.5,198C 178.833,198.667 167.167,198.667 155.5,198C 155,197.5 154.5,197 154,196.5C 152.841,167.251 152.341,137.918 152.5,108.5C 152.667,79.8333 152.833,51.1667 153,22.5C 153.513,21.4734 154.013,20.4734 154.5,19.5 Z"/></g>
<g><path style="opacity:0.974" fill="#d9dad9" d="M 640.5,19.5 C 643.978,19.1842 647.312,19.6842 650.5,21C 677.235,76.1915 703.402,131.692 729,187.5C 730.643,192.428 729.143,195.928 724.5,198C 713.167,198.667 701.833,198.667 690.5,198C 688.376,196.878 686.543,195.378 685,193.5C 671.757,164.016 658.257,134.683 644.5,105.5C 630.743,134.683 617.243,164.016 604,193.5C 602.363,195.81 600.196,197.31 597.5,198C 586.5,198.667 575.5,198.667 564.5,198C 559.857,195.928 558.357,192.428 560,187.5C 585.667,132.5 611.333,77.5 637,22.5C 638.145,21.3636 639.312,20.3636 640.5,19.5 Z"/></g>
<g><path style="opacity:0.974" fill="#d9dad9" d="M 1296.5,19.5 C 1299.52,19.3354 1302.52,19.502 1305.5,20C 1307.67,20.8333 1309.17,22.3333 1310,24.5C 1335.33,79.1667 1360.67,133.833 1386,188.5C 1387.06,192.886 1385.56,196.053 1381.5,198C 1370.17,198.667 1358.83,198.667 1347.5,198C 1345.92,197.293 1344.42,196.46 1343,195.5C 1328.81,165.251 1314.81,134.918 1301,104.5C 1287.47,134.083 1274.14,163.75 1261,193.5C 1259.27,195.617 1257.1,197.117 1254.5,198C 1243.17,198.667 1231.83,198.667 1220.5,198C 1216.79,195.487 1215.62,191.987 1217,187.5C 1242,133.5 1267,79.5 1292,25.5C 1293.33,23.34 1294.83,21.34 1296.5,19.5 Z"/></g>
<g><path style="opacity:0.971" fill="#d9dad9" d="M 23.5,21.5 C 34.8382,21.3335 46.1716,21.5001 57.5,22C 58.3333,22.8333 59.1667,23.6667 60,24.5C 60.6667,81.5 60.6667,138.5 60,195.5C 59.5,196.667 58.6667,197.5 57.5,198C 45.8333,198.667 34.1667,198.667 22.5,198C 21.2986,197.097 20.4652,195.931 20,194.5C 19.3333,138.167 19.3333,81.8333 20,25.5C 20.6897,23.6498 21.8564,22.3164 23.5,21.5 Z"/></g>
<g><path style="opacity:0.983" fill="#d9dad9" d="M 400.5,21.5 C 411.838,21.3335 423.172,21.5001 434.5,22C 435.333,22.8333 436.167,23.6667 437,24.5C 437.5,69.8321 437.667,115.165 437.5,160.5C 458.169,160.333 478.836,160.5 499.5,161C 500,161.5 500.5,162 501,162.5C 501.667,173.833 501.667,185.167 501,196.5C 500.5,197 500,197.5 499.5,198C 466.167,198.667 432.833,198.667 399.5,198C 399,197.5 398.5,197 398,196.5C 397.333,138.833 397.333,81.1667 398,23.5C 398.995,22.9341 399.828,22.2674 400.5,21.5 Z"/></g>
<g><path style="opacity:0.974" fill="#d9dad9" d="M 786.5,21.5 C 826.168,21.3333 865.835,21.5 905.5,22C 906.308,22.3076 906.975,22.8076 907.5,23.5C 908.575,26.438 908.741,29.438 908,32.5C 887.233,75.201 866.066,117.701 844.5,160C 866.543,160.177 888.543,160.677 910.5,161.5C 911.192,162.025 911.692,162.692 912,163.5C 912.667,174.167 912.667,184.833 912,195.5C 911.692,196.308 911.192,196.975 910.5,197.5C 869.541,198.661 828.541,198.827 787.5,198C 786.584,197.626 785.75,197.126 785,196.5C 784.333,193.167 784.333,189.833 785,186.5C 807.088,144.657 828.922,102.657 850.5,60.5C 828.841,59.6669 807.174,59.1669 785.5,59C 784.667,58.1667 783.833,57.3333 783,56.5C 782.333,46.1667 782.333,35.8333 783,25.5C 783.69,23.6498 784.856,22.3164 786.5,21.5 Z"/></g>
<g><path style="opacity:0.975" fill="#d9dad9" d="M 987.5,21.5 C 998.838,21.3335 1010.17,21.5001 1021.5,22C 1023.33,22.5 1024.5,23.6667 1025,25.5C 1025.33,62.1667 1025.67,98.8333 1026,135.5C 1032.38,155.609 1045.88,163.109 1066.5,158C 1077.39,153.402 1083.89,145.236 1086,133.5C 1086.33,97.1667 1086.67,60.8333 1087,24.5C 1087.83,23.6667 1088.67,22.8333 1089.5,22C 1101.17,21.3333 1112.83,21.3333 1124.5,22C 1125.42,22.3742 1126.25,22.8742 1127,23.5C 1127.97,64.8715 1127.64,106.205 1126,147.5C 1114.85,181.467 1091.35,199.467 1055.5,201.5C 1029.38,200.191 1008.88,188.857 994,167.5C 988.459,157.876 985.125,147.543 984,136.5C 983.333,99.5 983.333,62.5 984,25.5C 984.69,23.6498 985.856,22.3164 987.5,21.5 Z"/></g>
<g><path style="opacity:0.965" fill="#d9dad9" d="M 1418.5,21.5 C 1429.84,21.3335 1441.17,21.5001 1452.5,22C 1454.33,22.5 1455.5,23.6667 1456,25.5C 1456.67,81.8333 1456.67,138.167 1456,194.5C 1455.53,195.931 1454.7,197.097 1453.5,198C 1441.83,198.667 1430.17,198.667 1418.5,198C 1417.33,197.5 1416.5,196.667 1416,195.5C 1415.33,138.5 1415.33,81.5 1416,24.5C 1417.04,23.6266 1417.88,22.6266 1418.5,21.5 Z"/></g>
<g><path style="opacity:0.957" fill="#d9dad9" d="M 1162.5,159.5 C 1183.34,160.837 1190.51,171.504 1184,191.5C 1176.26,200.839 1166.76,203.006 1155.5,198C 1145.37,189.979 1143.2,180.146 1149,168.5C 1152.53,163.834 1157.03,160.834 1162.5,159.5 Z"/></g>
<g><path style="opacity:0.959" fill="#d9dad9" d="M 563.5,235.5 C 617.501,235.333 671.501,235.5 725.5,236C 726.931,236.465 728.097,237.299 729,238.5C 729.667,243.5 729.667,248.5 729,253.5C 728.097,254.701 726.931,255.535 725.5,256C 671.782,262.257 618.115,268.757 564.5,275.5C 562.742,274.872 561.242,273.872 560,272.5C 559.333,261.167 559.333,249.833 560,238.5C 561.145,237.364 562.312,236.364 563.5,235.5 Z"/></g>
</svg>
