<?xml version="1.0" encoding="UTF-8"?>
<svg version="1.1" xmlns="http://www.w3.org/2000/svg" width="623" height="673">
<path d="M0 0 C205.59 0 411.18 0 623 0 C623 222.09 623 444.18 623 673 C417.41 673 211.82 673 0 673 C0 450.91 0 228.82 0 0 Z " fill="#FEFEFE" transform="translate(0,0)"/>
<path d="M0 0 C0.92683594 -0.0309375 1.85367188 -0.061875 2.80859375 -0.09375 C6.68273218 0.74152524 7.96626723 2.52531912 10.5625 5.5 C12.08654039 8.01779024 13.31125167 10.64036157 14.53125 13.31640625 C15.06695366 14.45681114 15.06695366 14.45681114 15.61347961 15.62025452 C16.77353564 18.09630555 17.91808745 20.57918517 19.0625 23.0625 C19.86843713 24.79064408 20.67533101 26.51834227 21.4831543 28.24560547 C23.48885827 32.5404322 25.48230725 36.84080979 27.47161865 41.14324951 C29.03304315 44.51656592 30.60413494 47.88534358 32.17578125 51.25390625 C34.80873302 56.90406136 37.42900747 62.55997602 40.04443359 68.21826172 C42.58533753 73.71115826 45.1372047 79.19895924 47.6875 84.6875 C51.47916943 92.84986226 55.26446258 101.01513027 59.04296875 109.18359375 C66.64925008 125.62347118 74.27168407 142.05457161 82 158.4375 C88.12421344 171.42109505 94.18933799 184.4294362 100.16894531 197.48046875 C101.60353302 200.58890966 103.06140445 203.68563355 104.5234375 206.78125 C105.45319143 208.77080229 106.38288182 210.76038428 107.3125 212.75 C107.74353027 213.64944336 108.17456055 214.54888672 108.61865234 215.47558594 C112.52480251 223.89655285 112.52480251 223.89655285 111.5625 228.5 C108.18225725 234.07936326 108.18225725 234.07936326 104.38024902 235.06671143 C101.65612568 235.2954419 98.99141133 235.33151569 96.2578125 235.296875 C95.26047089 235.30261536 94.26312927 235.30835571 93.23556519 235.31427002 C91.12918829 235.31834644 89.02273527 235.30731989 86.91650391 235.28222656 C83.70431624 235.25016783 80.49718541 235.28189228 77.28515625 235.3203125 C75.23436395 235.31634621 73.18357479 235.30865588 71.1328125 235.296875 C70.17843292 235.30902039 69.22405334 235.32116577 68.24075317 235.3336792 C62.56582353 235.21498935 59.08650893 234.37272906 55.00857544 230.30450439 C52.55896202 227.24772184 50.95570667 224.01581083 49.3984375 220.4375 C49.04385971 219.66128296 48.68928192 218.88506592 48.32395935 218.08532715 C47.1778174 215.5643062 46.05743478 213.0327577 44.9375 210.5 C44.14546014 208.74353767 43.35207056 206.98768337 42.55737305 205.23242188 C37.21027447 193.37998928 31.98547979 181.46905591 26.88623047 169.5078125 C24.14221494 163.07292265 21.2902195 156.70101565 18.3135376 150.37095642 C14.67669122 142.63520531 11.15525318 134.84731545 7.625 127.0625 C6.9343167 125.54098298 6.24356181 124.01949846 5.55273438 122.49804688 C3.88850195 118.83240326 2.22522309 115.16632847 0.5625 111.5 C-1.91852273 114.55877647 -3.52714961 117.61759117 -5.1171875 121.21484375 C-5.62660889 122.35993408 -6.13603027 123.50502441 -6.66088867 124.68481445 C-7.21145259 125.93569783 -7.76198889 127.18659338 -8.3125 128.4375 C-8.8943954 129.74918297 -9.47684374 131.06062077 -10.05981445 132.37182617 C-11.2664977 135.08709534 -12.47081623 137.80339399 -13.67333984 140.52050781 C-16.30391156 146.46011557 -18.9648159 152.38610979 -21.625 158.3125 C-22.41924973 160.08251407 -23.2134974 161.85252906 -24.00764465 163.62258911 C-24.5648561 164.86454355 -25.12213885 166.10646601 -25.67948914 167.34835815 C-27.72152222 171.8997613 -29.75791609 176.45366554 -31.79283142 181.008255 C-33.38288148 184.56518164 -34.97594799 188.12075293 -36.56948853 191.67611694 C-37.34251121 193.40247367 -38.11434662 195.12936264 -38.88485718 196.85684204 C-41.36717343 202.42101675 -43.87729228 207.97119611 -46.4375 213.5 C-46.79229431 214.26664978 -47.14708862 215.03329956 -47.51263428 215.82318115 C-48.54850506 218.03986787 -49.60408467 220.2458613 -50.66796875 222.44921875 C-50.97414627 223.10501419 -51.28032379 223.76080963 -51.59577942 224.43647766 C-53.94046005 229.20256075 -56.68685137 232.12467569 -61.4375 234.5 C-62.86038891 234.61933644 -64.28847577 234.67967838 -65.71606445 234.70874023 C-66.60070877 234.72803085 -67.48535309 234.74732147 -68.39680481 234.76719666 C-72.44442716 234.82489678 -76.49187117 234.87420991 -80.53979492 234.9050293 C-82.67472494 234.92662377 -84.8095661 234.96074356 -86.9440918 235.00756836 C-90.02172386 235.07447858 -93.09752502 235.10201297 -96.17578125 235.12109375 C-97.12802078 235.14892441 -98.08026031 235.17675507 -99.06135559 235.20542908 C-105.41141551 235.18572405 -105.41141551 235.18572405 -108.1836853 233.33303833 C-110.43894671 230.91340631 -111.39204996 228.77533237 -111.92651367 225.53759766 C-111.3460436 221.93190186 -110.20135425 219.18994331 -108.61328125 215.8984375 C-108.31606674 215.27361984 -108.01885223 214.64880219 -107.71263123 214.00505066 C-106.73550155 211.9565283 -105.7426567 209.91603703 -104.75 207.875 C-104.05698133 206.42761743 -103.36526787 204.97960925 -102.67480469 203.53100586 C-101.26824862 200.58184455 -99.85687869 197.63506764 -98.44189453 194.68994141 C-95.63632308 188.83922348 -92.9098595 182.9522962 -90.1875 177.0625 C-89.12639756 174.7746953 -88.0651957 172.48693671 -87.00390625 170.19921875 C-84.7128459 165.25623598 -82.42492524 160.31180268 -80.1375885 155.36709595 C-78.13403003 151.03610207 -76.12972071 146.70545602 -74.125 142.375 C-73.72034515 141.50085449 -73.31569031 140.62670898 -72.89877319 139.72607422 C-67.30758776 127.65170757 -61.67697591 115.59675772 -56 103.5625 C-50.53788459 91.98302088 -45.12970617 80.38073288 -39.77734375 68.75 C-35.84801827 60.2128156 -31.89837644 51.68504887 -27.94766235 43.15774536 C-27.1228711 41.37731241 -26.29829789 39.59677843 -25.47396851 37.81613159 C-25.08190216 36.9692276 -24.68983582 36.12232361 -24.28588867 35.24975586 C-23.8985405 34.41303848 -23.51119232 33.57632111 -23.11210632 32.71424866 C-21.96787547 30.24665392 -20.81902659 27.78124604 -19.66992188 25.31591797 C-18.16356779 22.08024378 -16.68373374 18.83409164 -15.22070312 15.57861328 C-14.86490173 14.79716446 -14.50910034 14.01571564 -14.14251709 13.21058655 C-13.47389743 11.74203874 -12.8133815 10.26976281 -12.16265869 8.79319763 C-9.3368337 2.63539225 -6.85255293 0.07603387 0 0 Z " fill="#2D1C4B" transform="translate(321.4375,151.5)"/>
<path d="M0 0 C0.87054095 -0.00709439 1.7410819 -0.01418877 2.63800287 -0.02149814 C5.55481279 -0.03909919 8.47029388 -0.02096265 11.38708496 -0.00291443 C13.47821154 -0.00805243 15.5693338 -0.01533281 17.66044617 -0.02459717 C23.34021939 -0.04313433 29.01952407 -0.03015772 34.69927788 -0.01050687 C40.64001906 0.00586167 46.58073015 -0.00293077 52.52148438 -0.00802612 C62.49840797 -0.01254907 72.4751442 0.00333539 82.45202637 0.03126526 C93.99067615 0.06331794 105.52898798 0.063302 117.06766176 0.04605049 C128.16235376 0.030193 139.25692172 0.03691399 150.35160828 0.0539875 C155.07561032 0.06086449 159.79951313 0.05981886 164.52351379 0.05244255 C170.08532293 0.04478789 175.64674694 0.0568794 181.20849037 0.08429146 C183.25110544 0.09118493 185.29375641 0.091263 187.33637047 0.08407593 C190.12205801 0.07540292 192.90655113 0.09130084 195.69213867 0.11352539 C196.50293585 0.10528462 197.31373303 0.09704386 198.14909983 0.08855337 C201.92791874 0.14430292 204.12511254 0.48798643 207.34749603 2.53267002 C209.55957007 4.8520462 209.97819614 5.67243179 209.97497559 8.81568909 C209.97690918 9.59686096 209.97884277 10.37803284 209.98083496 11.18287659 C209.9569873 11.98982971 209.93313965 12.79678284 209.90856934 13.62818909 C209.91952637 14.43514221 209.9304834 15.24209534 209.94177246 16.07350159 C209.86951735 21.91171461 209.86951735 21.91171461 207.75183105 24.81031799 C204.58401466 27.20402216 202.22475888 27.43759762 198.28747559 27.90162659 C197.57204086 27.99058701 196.85660614 28.07954742 196.11949158 28.17120361 C193.71754104 28.46527933 191.31344672 28.73418235 188.90856934 29.00318909 C187.19160801 29.20811473 185.47481451 29.41445068 183.75817871 29.62208557 C177.95702287 30.31660402 172.15176163 30.97287104 166.34606934 31.62818909 C164.16879938 31.87586348 161.99155382 32.12375249 159.81433105 32.37184143 C150.67614781 33.41175392 141.53742384 34.44665176 132.39709473 35.46754456 C119.71204907 36.88669973 107.05054055 38.39679772 94.39880371 40.08937073 C80.4072505 41.93280133 66.37830088 43.45377961 52.353302 45.01765442 C37.33890225 46.69299241 22.34192451 48.4325842 7.37731934 50.51100159 C-8.14347923 52.62168463 -8.14347923 52.62168463 -11.83459473 50.19386292 C-14.56293538 46.34628751 -14.24626266 42.83807577 -14.22033691 38.22584534 C-14.22653549 37.31112961 -14.23273407 36.39641388 -14.23912048 35.45397949 C-14.24621675 33.52158166 -14.243048 31.58912266 -14.23034668 29.65675354 C-14.21649324 26.70402627 -14.2505381 23.75447621 -14.28869629 20.80201721 C-14.28964764 18.92245915 -14.28778781 17.04289712 -14.28283691 15.16334534 C-14.29609512 14.28300125 -14.30935333 13.40265717 -14.32301331 12.49563599 C-14.31048019 11.66805283 -14.29794708 10.84046967 -14.28503418 9.98780823 C-14.28407242 9.26485062 -14.28311066 8.54189301 -14.28211975 7.79702759 C-12.21254963 0.6517851 -6.49830537 -0.09485995 0 0 Z " fill="#301F4D" transform="translate(223.6539306640625,435.37181091308594)"/>
</svg>
